<?xml version="1.0" standalone="no"?>
<!DOCTYPE svg PUBLIC "-//W3C//DTD SVG 20010904//EN"
 "http://www.w3.org/TR/2001/REC-SVG-20010904/DTD/svg10.dtd">
<svg version="1.0" xmlns="http://www.w3.org/2000/svg"
 width="500.000000pt" height="500.000000pt" viewBox="0 0 500.000000 500.000000"
 preserveAspectRatio="xMidYMid meet">

<g transform="translate(0.000000,500.000000) scale(0.100000,-0.100000)"
fill="#000000" stroke="none">
<path d="M2285 4423 c-195 -26 -416 -91 -600 -178 -166 -78 -389 -220 -418
-266 -6 -10 -17 -19 -22 -19 -17 0 -218 -207 -274 -282 -83 -109 -158 -232
-210 -340 -57 -119 -121 -285 -132 -343 -4 -22 -17 -82 -28 -134 -46 -208 -51
-510 -11 -718 28 -144 79 -316 126 -422 52 -114 100 -209 130 -257 19 -29 34
-55 34 -58 0 -3 30 -45 67 -93 69 -90 271 -299 332 -343 18 -14 42 -32 51 -40
51 -43 61 -50 65 -50 2 0 38 -22 78 -48 212 -139 444 -223 762 -278 194 -34
529 -17 755 37 162 39 352 117 495 204 22 13 47 27 55 31 101 50 400 312 479
419 16 22 46 63 68 91 60 79 82 112 85 125 2 7 10 20 19 29 39 41 152 296 185
420 70 257 79 319 78 575 -1 179 -5 241 -22 330 -24 129 -64 279 -74 283 -5 2
-8 12 -8 22 0 27 -81 211 -148 335 -81 150 -245 352 -376 465 -48 41 -94 79
-103 84 -8 4 -23 16 -33 25 -30 26 -67 53 -170 121 -129 85 -419 203 -575 234
-227 44 -242 46 -436 45 -107 -1 -207 -4 -224 -6z m242 -113 c21 -38 41 -70
46 -70 4 0 7 32 7 71 0 62 2 70 18 67 15 -3 17 -18 20 -126 3 -122 3 -122 -21
-122 -18 0 -30 13 -58 65 -18 36 -37 65 -41 65 -5 0 -8 -29 -8 -65 0 -63 -1
-65 -25 -65 -24 0 -25 3 -25 58 0 31 3 87 7 125 8 92 29 92 80 -3z m261 45 c6
-3 12 -16 12 -30 0 -18 -5 -25 -19 -25 -23 0 -28 -13 -37 -105 -8 -84 -8 -85
-35 -78 -20 6 -21 10 -14 77 3 39 9 81 11 92 4 16 0 23 -15 27 -20 5 -29 36
-14 51 6 6 81 0 111 -9z m-433 -105 c30 -60 55 -111 55 -114 0 -2 -9 -6 -20
-9 -13 -3 -26 3 -37 19 -15 20 -24 23 -55 18 -21 -4 -38 -12 -38 -20 0 -17
-28 -44 -47 -44 -12 0 -14 6 -8 28 4 15 16 69 26 120 22 108 24 112 50 112 14
0 32 -27 74 -110z m534 78 c0 -7 -10 -62 -22 -123 -20 -99 -24 -110 -42 -107
-11 2 -21 5 -23 7 -2 2 4 43 13 92 27 150 24 143 51 143 13 0 24 -6 23 -12z
m-855 -115 c15 -49 31 -98 36 -111 26 -60 -24 -55 -94 9 -59 54 -66 50 -41
-21 20 -56 19 -67 -4 -73 -17 -4 -24 9 -55 106 -19 61 -33 115 -30 119 12 19
46 4 98 -43 31 -28 56 -47 56 -43 0 4 -7 34 -17 67 -14 50 -14 60 -2 68 8 5
17 9 20 9 4 0 19 -39 33 -87z m1054 68 c8 -4 20 -41 28 -81 7 -40 16 -75 18
-77 2 -3 13 21 22 52 19 59 37 76 57 56 8 -8 3 -35 -21 -109 -40 -119 -44
-126 -69 -118 -16 5 -23 22 -33 81 -7 41 -16 75 -20 75 -3 0 -14 -25 -24 -55
-13 -41 -22 -55 -36 -55 -31 0 -31 13 -1 101 51 149 51 148 79 130z m-1301
-193 c46 -46 83 -86 83 -89 0 -17 -35 -18 -52 -2 -19 17 -21 16 -56 -2 -30
-16 -36 -25 -34 -46 3 -24 -22 -48 -36 -35 -3 3 -10 57 -16 121 -17 166 -8
171 111 53z m1597 59 c17 -13 17 -19 3 -131 -8 -65 -18 -120 -21 -123 -13 -13
-36 9 -36 35 0 22 -7 33 -33 47 -31 16 -36 16 -58 2 -20 -13 -27 -14 -42 -2
-17 12 -11 20 70 99 48 47 91 86 94 86 3 0 13 -6 23 -13z m-1842 -131 l-4 -63
66 -28 c36 -15 66 -32 66 -36 0 -18 -53 -21 -86 -5 -50 23 -58 20 -35 -13 25
-34 26 -45 7 -60 -11 -9 -25 7 -75 82 -54 82 -71 117 -57 117 2 0 11 3 19 6
10 4 21 -4 30 -22 l15 -28 7 45 c8 47 20 69 39 69 7 0 10 -21 8 -64z m2063
-19 c8 -12 15 -29 15 -38 0 -27 -39 -69 -64 -69 -21 0 -24 -6 -28 -50 -6 -59
-12 -68 -34 -49 -11 9 -15 25 -12 56 4 49 -3 54 -22 18 -14 -27 -26 -30 -49
-16 -12 8 -2 29 52 111 l68 101 29 -21 c16 -12 36 -31 45 -43z m119 -90 c8
-12 5 -21 -9 -37 l-20 -22 46 7 c35 5 48 3 58 -9 18 -21 17 -22 -49 -38 l-55
-14 -9 -72 c-10 -74 -16 -83 -43 -57 -11 12 -13 27 -8 68 l7 52 -29 -28 c-28
-26 -63 -29 -63 -5 0 15 144 178 154 174 5 -1 14 -10 20 -19z m-2317 -63 c54
-31 100 -59 103 -61 3 -3 -3 -11 -14 -18 -13 -10 -24 -11 -41 -3 -20 9 -29 6
-54 -13 -26 -20 -30 -29 -26 -55 4 -21 0 -35 -10 -44 -9 -7 -17 -11 -19 -9 -1
2 -21 55 -44 118 -32 87 -39 117 -31 128 18 21 31 17 136 -43z m-202 -119 c14
-13 25 -35 25 -48 0 -20 8 -25 50 -36 53 -14 59 -21 35 -41 -14 -11 -31 -10
-90 7 -16 4 -15 0 10 -26 27 -29 28 -32 13 -48 -16 -15 -23 -10 -103 63 l-87
78 41 38 c47 44 72 47 106 13z m2698 1 c102 -42 88 -195 -20 -225 -71 -20
-153 38 -153 108 0 40 33 92 71 113 40 22 59 22 102 4z m-1501 -79 c23 -18 44
-40 46 -50 3 -14 -7 -12 -59 12 -65 30 -81 47 -58 62 21 13 24 12 71 -24z
m-1362 -42 c11 -13 9 -21 -10 -47 -18 -25 -20 -32 -9 -39 10 -6 22 0 39 22 22
27 27 28 44 16 18 -13 18 -15 -5 -46 -24 -32 -24 -33 -4 -47 18 -14 22 -13 46
15 23 28 27 29 44 17 21 -15 17 -24 -37 -89 l-23 -28 -90 67 c-49 36 -91 67
-93 69 -5 5 71 105 79 105 4 0 12 -7 19 -15z m3052 -107 c27 -47 18 -86 -22
-101 -16 -6 -33 -21 -39 -34 -14 -30 -58 -48 -87 -34 -31 14 -79 80 -68 91 19
19 179 119 187 117 5 -1 18 -19 29 -39z m-3162 -97 c0 -10 -11 -26 -25 -35
-37 -25 -49 -52 -35 -86 30 -72 140 -53 140 24 l0 31 -23 -29 c-21 -26 -24
-27 -37 -12 -11 15 -10 22 8 54 32 56 49 62 78 29 54 -62 18 -164 -66 -187
-74 -20 -160 37 -160 107 0 40 36 99 72 116 36 17 48 14 48 -12z m3296 -127
c6 -23 -3 -36 -72 -105 -43 -43 -82 -79 -86 -79 -3 0 -10 10 -14 22 -4 15 -1
25 10 34 16 11 16 15 -4 54 -18 35 -25 41 -46 37 -17 -3 -28 1 -35 15 -6 11
-9 21 -7 23 2 2 112 13 230 24 11 0 20 -9 24 -25z m-1996 -419 c0 -30 5 -55
10 -55 10 0 13 11 14 69 1 19 7 36 14 39 10 3 12 -11 10 -59 -3 -62 -4 -64
-32 -67 -37 -5 -46 10 -46 76 0 40 4 52 15 52 12 0 15 -13 15 -55z m118 25
c21 -37 34 -39 30 -3 -2 15 2 28 10 30 9 4 12 -13 12 -61 0 -75 -13 -85 -45
-33 l-19 32 -4 -33 c-2 -18 -8 -32 -14 -30 -9 3 -13 50 -9 111 2 26 20 20 39
-13z m102 -35 c0 -72 -16 -89 -21 -22 -5 53 0 87 12 87 5 0 9 -29 9 -65z m50
56 c0 -5 5 -22 11 -38 l11 -28 12 34 c12 35 37 55 35 29 -2 -32 -37 -113 -49
-113 -7 0 -21 23 -31 50 -22 63 -23 75 -4 75 8 0 15 -4 15 -9z m160 -2 c0 -6
-9 -13 -20 -16 -11 -3 -20 -9 -20 -14 0 -5 9 -9 20 -9 11 0 20 -4 20 -10 0 -5
-9 -10 -20 -10 -11 0 -20 -6 -20 -14 0 -7 9 -16 20 -19 33 -8 23 -27 -15 -27
l-35 0 0 65 0 65 35 0 c19 0 35 -5 35 -11z m84 -11 c8 -13 8 -23 -2 -38 -9
-15 -10 -26 -2 -40 13 -25 13 -30 -3 -30 -8 0 -19 10 -25 23 l-11 22 0 -22
c-1 -13 -5 -23 -11 -23 -6 0 -10 29 -10 66 0 65 0 65 26 62 15 -2 32 -11 38
-20z m84 7 c-2 -5 -9 -9 -15 -9 -17 2 -16 -2 8 -35 29 -39 22 -65 -17 -69 -21
-2 -33 2 -37 12 -8 21 10 31 28 16 24 -20 19 13 -5 35 -20 18 -26 46 -13 59
11 10 54 3 51 -9z m52 -50 c0 -37 -4 -65 -10 -65 -6 0 -10 28 -10 65 0 37 4
65 10 65 6 0 10 -28 10 -65z m80 50 c0 -8 -4 -15 -10 -15 -5 0 -10 -22 -10
-50 0 -38 -4 -50 -15 -50 -11 0 -15 12 -15 49 0 28 -4 53 -10 56 -21 13 -9 25
25 25 24 0 35 -5 35 -15z m99 -44 c11 -32 21 -61 21 -65 0 -13 -28 -6 -34 9
-3 8 -12 15 -21 15 -9 0 -18 -7 -21 -15 -4 -8 -13 -15 -21 -15 -8 0 -13 6 -11
13 3 6 13 36 22 65 10 28 23 52 30 52 8 0 23 -26 35 -59z m99 42 c2 -8 -5 -13
-19 -13 l-22 0 22 -24 c29 -31 25 -70 -8 -74 -27 -4 -47 11 -36 28 5 8 10 8
20 0 8 -7 16 -7 19 -2 3 6 -1 15 -10 23 -42 34 -39 82 4 77 14 -2 27 -9 30
-15z m-878 -225 l40 -73 0 73 c0 70 1 72 25 72 l25 0 0 -125 c0 -124 0 -125
-23 -125 -18 0 -32 16 -65 73 l-41 72 -1 -72 c0 -71 -1 -73 -25 -73 l-25 0 0
125 0 125 25 0 c20 0 32 -13 65 -72z m188 -31 c3 -95 3 -98 25 -95 21 3 22 9
25 101 3 96 3 97 27 97 25 0 25 0 25 -99 0 -84 -3 -102 -21 -125 -26 -33 -79
-36 -109 -6 -17 17 -20 33 -20 126 0 104 0 105 23 102 21 -3 22 -8 25 -101z
m256 85 c15 -18 15 -20 -5 -38 -16 -14 -23 -15 -26 -6 -5 12 -33 17 -33 6 0
-4 18 -26 40 -50 44 -48 51 -84 24 -122 -20 -29 -76 -30 -104 -2 -25 25 -25
37 -1 49 14 8 22 7 31 -4 15 -18 40 -20 40 -4 0 7 -18 31 -40 55 -44 47 -52
90 -24 118 21 22 77 20 98 -2z m207 -97 c21 -60 38 -116 39 -122 0 -7 -11 -13
-24 -13 -17 0 -26 7 -30 25 -5 21 -12 25 -46 25 -33 0 -42 -4 -52 -25 -7 -17
-19 -25 -36 -25 -15 0 -22 5 -20 13 3 6 22 63 43 125 35 107 38 113 62 110 23
-3 30 -15 64 -113z m279 95 c40 -40 19 -112 -35 -122 -16 -2 -21 -13 -25 -53
-4 -42 -8 -50 -27 -53 -23 -3 -23 -2 -23 122 l0 126 45 0 c32 0 51 -6 65 -20z
m112 -77 c3 -90 5 -98 23 -98 18 0 20 8 23 98 3 96 3 97 27 97 25 0 25 0 25
-101 0 -55 -4 -109 -10 -119 -16 -29 -67 -42 -100 -25 -37 19 -40 30 -40 146
0 99 0 99 25 99 24 0 24 -1 27 -97z m248 73 c0 -15 -7 -26 -20 -29 -18 -5 -20
-14 -20 -101 0 -96 0 -96 -25 -96 l-25 0 0 100 c0 80 -3 100 -14 100 -19 0
-29 17 -22 35 4 11 22 15 66 15 57 0 60 -1 60 -24z m145 -1 c30 -29 32 -64 6
-96 -17 -21 -18 -27 -5 -51 8 -15 19 -39 24 -53 9 -23 7 -25 -19 -25 -24 0
-32 7 -47 43 l-19 42 -3 -42 c-3 -38 -6 -43 -28 -43 l-24 0 0 125 0 125 45 0
c35 0 52 -6 70 -25z m216 -90 c22 -60 39 -116 39 -122 0 -7 -11 -13 -24 -13
-17 0 -26 7 -30 25 -5 21 -12 25 -46 25 -34 0 -42 -4 -50 -25 -7 -18 -17 -25
-36 -25 -17 0 -24 5 -22 13 3 6 22 63 43 125 36 106 40 113 63 110 22 -3 29
-16 63 -113z m127 -194 c-4 -173 -10 -237 -28 -321 -61 -286 -186 -507 -369
-651 -161 -128 -493 -260 -767 -305 -92 -15 -346 -25 -357 -14 -3 3 -2 39 1
80 l7 74 210 91 c283 122 426 201 580 321 96 74 253 234 358 366 73 91 78 99
71 132 -7 38 8 51 21 19 6 -16 11 -13 36 17 16 19 29 38 29 42 0 11 -134 -2
-138 -13 -5 -13 -25 -10 -47 7 -17 13 -18 16 -5 24 12 8 10 10 -10 11 -14 1
-32 2 -40 1 -38 -3 -41 8 -12 38 39 39 75 39 114 0 37 -37 54 -38 63 -2 12 50
33 72 68 72 17 0 49 3 71 7 36 6 40 10 68 71 16 36 36 92 46 123 27 94 35 47
30 -190z m-2895 160 c80 -41 96 -45 176 -49 105 -5 177 12 265 64 32 19 60 33
62 31 2 -2 -3 -71 -13 -153 -21 -193 -21 -476 0 -673 9 -85 16 -156 14 -157
-1 -2 -25 11 -52 28 -85 53 -150 72 -245 72 -97 1 -156 -16 -245 -70 -32 -19
-59 -33 -60 -32 -1 2 5 57 13 123 19 158 20 577 1 743 -8 67 -12 121 -9 120 3
-2 45 -23 93 -47z m1149 -183 c3 -31 7 -34 75 -56 41 -13 74 -30 78 -40 4 -12
-24 -45 -106 -124 -62 -60 -117 -107 -123 -105 -6 2 -18 30 -27 63 -8 32 -23
73 -32 90 -8 17 -17 43 -19 59 -2 24 2 29 26 36 38 11 66 37 66 64 0 25 18 45
41 45 13 0 19 -10 21 -32z m1143 -18 c-5 -15 -3 -18 8 -14 17 6 32 -37 16 -47
-6 -3 -4 -11 6 -19 13 -11 13 -15 3 -21 -21 -14 -41 -10 -35 5 3 8 -1 29 -9
45 -11 23 -12 35 -4 51 14 26 23 26 15 0z m302 14 c-3 -3 -12 -4 -19 -1 -8 3
-5 6 6 6 11 1 17 -2 13 -5z m23 -18 c0 -2 -7 -6 -15 -10 -8 -3 -15 -1 -15 4 0
6 7 10 15 10 8 0 15 -2 15 -4z m-195 -36 c-3 -5 -13 -10 -21 -10 -8 0 -12 5
-9 10 3 6 13 10 21 10 8 0 12 -4 9 -10z m-215 -24 c0 -3 -4 -16 -10 -30 -6
-18 -29 -34 -76 -56 -38 -17 -64 -35 -62 -42 7 -19 37 -35 46 -23 4 6 20 21
35 34 26 24 27 24 41 5 16 -22 12 -36 -9 -28 -7 3 -18 -3 -24 -14 -8 -16 -6
-21 14 -30 14 -7 25 -16 25 -22 0 -5 7 -10 15 -10 14 0 35 -29 35 -49 0 -24
-52 -10 -84 24 -18 19 -36 32 -39 29 -2 -3 4 -23 15 -45 21 -44 18 -69 -7 -69
-9 0 -15 9 -15 24 0 22 -26 54 -39 48 -11 -5 -25 150 -14 166 5 9 33 22 62 30
37 11 56 22 64 39 9 20 27 32 27 19z m-262 -66 c14 -25 30 -40 42 -40 24 0 26
-15 4 -24 -12 -5 -15 -14 -10 -37 3 -17 1 -39 -4 -49 -7 -13 -6 -31 3 -58 12
-35 12 -39 -7 -53 -12 -9 -36 -15 -56 -13 -19 1 -38 -2 -41 -8 -4 -6 -17 -12
-30 -14 -13 -2 -34 -6 -46 -10 -18 -5 -25 -1 -34 20 -7 15 -18 25 -25 22 -16
-6 -64 56 -64 83 0 24 0 24 34 11 21 -8 30 -5 55 20 16 17 35 30 43 30 7 0 21
7 32 15 15 12 18 23 14 65 -4 43 -2 53 16 65 33 23 49 18 74 -25z m477 30 c3
-5 -1 -10 -10 -10 -9 0 -13 5 -10 10 3 6 8 10 10 10 2 0 7 -4 10 -10z m-85
-30 c0 -5 -4 -10 -9 -10 -6 0 -13 5 -16 10 -3 6 1 10 9 10 9 0 16 -4 16 -10z
m120 -21 c0 -5 -11 -9 -23 -9 -13 0 -32 -9 -41 -19 -10 -11 -24 -17 -32 -14
-24 9 -15 23 28 43 40 18 68 17 68 -1z m-180 -17 c0 -4 -14 -13 -31 -19 -23
-9 -29 -9 -26 0 2 6 14 14 28 18 13 4 25 7 27 8 1 1 2 -3 2 -7z m61 -37 c0 -5
-9 -11 -21 -13 -20 -3 -27 8 -13 22 10 9 34 3 34 -9z m209 -57 c0 -7 -4 -19
-9 -27 -11 -17 -23 1 -15 23 7 19 24 21 24 4z m-160 -87 c0 -5 -7 -12 -16 -15
-14 -5 -15 -4 -4 9 14 17 20 19 20 6z m-1105 -24 c45 -30 226 -50 240 -27 10
16 35 12 29 -5 -4 -8 -1 -15 5 -15 6 0 11 -7 11 -15 0 -20 -10 -19 -27 3 -14
16 -14 16 -9 -1 3 -10 6 -23 6 -28 0 -5 9 -9 19 -9 11 0 23 -4 26 -10 9 -15
25 -12 25 5 0 18 8 19 43 3 29 -14 36 -28 12 -28 -15 0 -14 -11 12 -68 11 -26
19 -32 31 -26 15 7 32 9 109 13 6 1 19 9 29 18 10 10 36 23 58 29 23 6 50 14
61 18 16 7 15 4 -5 -14 -21 -18 -22 -21 -5 -15 11 4 36 8 55 10 45 4 80 15 80
25 0 5 17 14 38 20 48 16 118 48 164 77 21 13 43 23 50 23 16 0 -113 -86 -143
-95 -13 -4 -40 -17 -59 -29 -39 -23 -252 -96 -282 -96 -11 0 -29 -5 -41 -12
-31 -16 -86 -27 -92 -18 -3 5 -14 6 -25 3 -16 -4 -19 -2 -14 11 7 17 -20 24
-30 7 -10 -15 -159 43 -209 82 -27 20 -54 37 -61 37 -6 0 -19 9 -29 20 -9 11
-26 20 -36 20 -11 0 -22 4 -26 9 -3 5 -22 15 -43 21 -20 7 -48 19 -62 28 l-25
15 45 12 c25 7 47 13 50 14 3 0 14 -5 25 -12z m1075 -64 c-1 -10 -11 -31 -24
-46 l-23 -28 5 33 c5 34 18 58 33 58 5 0 9 -8 9 -17z m-1105 -33 c3 -6 -1 -7
-9 -4 -18 7 -21 14 -7 14 6 0 13 -4 16 -10z m465 -5 c0 -8 -7 -15 -15 -15 -16
0 -20 12 -8 23 11 12 23 8 23 -8z m-390 -25 c0 -5 -4 -10 -9 -10 -6 0 -13 5
-16 10 -3 6 1 10 9 10 9 0 16 -4 16 -10z m884 -6 c29 -11 17 -24 -21 -24 -36
1 -37 2 -19 15 23 17 20 17 40 9z m-799 -54 c3 -5 -1 -10 -9 -10 -8 0 -18 5
-21 10 -3 6 1 10 9 10 8 0 18 -4 21 -10z m60 -30 c3 -5 2 -10 -4 -10 -5 0 -13
5 -16 10 -3 6 -2 10 4 10 5 0 13 -4 16 -10z m723 -699 c20 -12 10 -46 -12 -46
-11 0 -21 -5 -23 -12 -3 -7 17 -16 51 -23 87 -18 121 -77 74 -127 -36 -38
-107 -26 -93 16 5 16 12 20 30 15 29 -7 44 15 21 31 -9 7 -34 15 -56 19 -50 8
-80 37 -80 75 0 45 52 75 88 52z m-1618 -46 c39 -20 70 -62 70 -94 -1 -44 -36
-108 -69 -125 -40 -21 -68 -19 -117 7 l-41 22 56 103 c30 56 59 102 64 102 4
0 21 -7 37 -15z m1531 -74 c68 -72 65 -145 -9 -192 -25 -16 -51 -29 -57 -29
-9 0 -115 199 -115 216 0 10 86 44 114 44 21 0 40 -11 67 -39z m-162 -125 c47
-112 48 -122 22 -129 -16 -4 -24 7 -47 62 -15 36 -36 86 -46 111 -18 42 -18
45 -1 57 9 7 20 10 24 6 4 -5 26 -52 48 -107z m-1151 64 c2 -19 1 -77 -3 -128
-6 -79 -9 -93 -23 -90 -10 2 -18 15 -20 31 -3 21 -12 31 -39 42 -34 14 -38 14
-58 -5 -18 -17 -24 -18 -39 -7 -16 12 -11 21 61 105 87 103 115 115 121 52z
m118 -8 c6 -4 19 -34 28 -67 26 -94 28 -94 45 -26 17 66 26 77 49 62 11 -7 8
-30 -13 -122 -15 -63 -29 -116 -30 -117 -8 -9 -45 11 -49 26 -3 9 -12 44 -22
76 -18 66 -24 63 -44 -22 -9 -40 -16 -52 -27 -48 -8 3 -17 6 -19 6 -9 0 -3 41
22 138 26 97 35 111 60 94z m932 -93 c40 -55 72 -105 72 -110 0 -16 -49 -10
-59 8 -7 14 -15 15 -48 8 -30 -8 -39 -15 -42 -35 -3 -26 -17 -40 -40 -40 -12
0 -13 21 -7 127 6 123 12 142 42 143 5 0 43 -45 82 -101z m-262 34 c-6 -22
-46 -219 -46 -228 0 -4 -12 -5 -26 -3 -22 3 -32 17 -74 113 -26 61 -46 113
-43 118 2 4 12 7 22 7 13 0 28 -21 51 -72 l33 -73 13 40 c7 22 13 50 13 62 2
38 12 53 38 53 18 0 23 -4 19 -17z m-392 -38 l-6 -45 36 0 c35 0 36 1 36 38 0
45 4 52 31 45 17 -5 19 -12 13 -92 -8 -133 -12 -151 -34 -151 -16 0 -19 9 -22
53 -3 48 -5 52 -30 55 -25 3 -27 1 -33 -53 -6 -43 -11 -55 -22 -51 -8 3 -19 6
-23 6 -9 0 -6 63 6 188 5 47 8 52 30 52 24 0 25 -2 18 -45z m186 -19 c0 -34 3
-91 6 -125 7 -60 6 -61 -18 -61 -25 0 -25 1 -31 116 -4 64 -4 121 -1 125 3 5
14 9 25 9 17 0 19 -7 19 -64z"/>
<path d="M2280 4256 c0 -8 -3 -21 -6 -30 -4 -10 -1 -16 9 -16 21 0 27 12 20
38 -6 24 -23 30 -23 8z"/>
<path d="M1714 4087 c3 -10 6 -27 6 -38 0 -21 8 -23 30 -9 13 8 10 14 -14 37
-21 20 -27 23 -22 10z"/>
<path d="M3316 4051 c-17 -19 -17 -21 -2 -27 22 -8 28 -1 24 26 l-3 22 -19
-21z"/>
<path d="M3527 3966 c-7 -17 22 -31 36 -17 5 5 6 14 3 20 -10 16 -33 14 -39
-3z"/>
<path d="M1330 3825 c0 -2 5 -16 10 -30 9 -23 13 -25 25 -15 21 17 19 25 -10
38 -14 6 -25 10 -25 7z"/>
<path d="M1141 3686 c-8 -10 -8 -16 3 -25 10 -9 16 -8 26 3 12 15 6 36 -9 36
-5 0 -14 -6 -20 -14z"/>
<path d="M3825 3678 c-47 -25 -58 -69 -27 -107 40 -50 125 -16 125 50 0 53
-51 83 -98 57z"/>
<path d="M4027 3463 c-13 -12 -7 -23 13 -23 11 0 20 7 20 15 0 15 -21 21 -33
8z"/>
<path d="M3954 3415 c-18 -13 -18 -15 -2 -31 19 -19 38 -11 38 16 0 26 -14 32
-36 15z"/>
<path d="M4117 3241 c-25 -5 -27 -8 -15 -24 13 -17 15 -17 37 7 25 27 24 28
-22 17z"/>
<path d="M2700 2870 c0 -5 5 -10 10 -10 6 0 10 5 10 10 0 6 -4 10 -10 10 -5 0
-10 -4 -10 -10z"/>
<path d="M3021 2844 c0 -11 3 -14 6 -6 3 7 2 16 -1 19 -3 4 -6 -2 -5 -13z"/>
<path d="M2856 2624 c-8 -30 -3 -39 18 -31 9 4 12 14 9 27 -8 31 -20 33 -27 4z"/>
<path d="M3150 2671 c0 -12 6 -21 16 -21 9 0 14 7 12 17 -5 25 -28 28 -28 4z"/>
<path d="M3650 2671 c0 -15 6 -21 21 -21 25 0 22 33 -4 38 -12 2 -17 -3 -17
-17z"/>
<path d="M3855 2619 c-8 -24 -1 -34 19 -26 9 4 12 14 9 26 -7 27 -20 27 -28 0z"/>
<path d="M1410 2483 c0 -12 7 -24 16 -27 20 -8 14 -37 -23 -116 l-25 -55 -16
35 c-9 20 -16 64 -16 103 -1 37 -4 67 -7 67 -10 0 -35 -33 -53 -67 -22 -44
-20 -87 9 -173 l25 -74 -69 -126 c-38 -69 -77 -139 -86 -155 l-18 -31 38 -57
c21 -31 41 -55 45 -52 4 3 36 68 71 145 35 77 67 139 71 138 4 -2 36 -63 72
-135 36 -73 69 -133 74 -133 4 0 22 31 39 70 l31 69 -55 93 c-30 51 -66 115
-79 141 l-25 48 21 65 c31 101 23 190 -20 229 -19 18 -20 17 -20 -2z"/>
<path d="M1681 956 c-37 -64 -38 -74 -8 -85 44 -16 90 26 90 85 0 24 -24 54
-44 54 -4 0 -21 -24 -38 -54z"/>
<path d="M3178 963 c-24 -6 -23 -13 9 -78 29 -60 40 -65 67 -36 24 26 13 74
-21 101 -14 11 -28 19 -32 19 -3 -1 -14 -3 -23 -6z"/>
<path d="M1888 860 c-16 -22 -16 -25 -2 -33 21 -12 26 -5 22 30 l-3 28 -17
-25z"/>
<path d="M2930 808 c0 -31 10 -40 30 -28 13 8 11 13 -7 32 l-23 22 0 -26z"/>
</g>
</svg>
