<svg width="1029" height="591" viewBox="0 0 1029 591" fill="none" xmlns="http://www.w3.org/2000/svg">
<path d="M730.961 141.5L731.047 142.998L730.961 141.5ZM838.961 66L838.961 67.5L838.961 66ZM1015.9 168.56C1016.49 169.146 1017.44 169.146 1018.02 168.56L1027.57 159.014C1028.15 158.429 1028.15 157.479 1027.57 156.893C1026.98 156.307 1026.03 156.307 1025.45 156.893L1016.96 165.378L1008.48 156.893C1007.89 156.307 1006.94 156.307 1006.35 156.893C1005.77 157.479 1005.77 158.429 1006.35 159.014L1015.9 168.56ZM682.624 168.261C682.529 167.438 681.784 166.848 680.961 166.943C680.138 167.039 679.549 167.783 679.644 168.606L682.624 168.261ZM682.238 156.642C681.791 157.34 681.996 158.268 682.694 158.714C683.392 159.16 684.319 158.956 684.765 158.258L682.238 156.642ZM692.739 151.266C693.464 150.864 693.726 149.952 693.325 149.227C692.923 148.502 692.011 148.24 691.286 148.641L692.739 151.266ZM702.224 144.278C701.428 144.506 700.968 145.337 701.197 146.134C701.425 146.93 702.256 147.39 703.053 147.161L702.224 144.278ZM714.082 144.76C714.9 144.628 715.456 143.858 715.324 143.041C715.193 142.223 714.423 141.666 713.605 141.798L714.082 144.76ZM725.088 140.413C724.263 140.484 723.651 141.21 723.722 142.036C723.792 142.861 724.518 143.473 725.344 143.403L725.088 140.413ZM737.541 142.576C738.367 142.516 738.988 141.797 738.928 140.971C738.868 140.145 738.15 139.524 737.323 139.584L737.541 142.576ZM750.002 138.457C749.178 138.544 748.581 139.282 748.668 140.106C748.755 140.93 749.494 141.527 750.318 141.44L750.002 138.457ZM763.048 139.858C763.868 139.74 764.437 138.98 764.319 138.16C764.201 137.34 763.441 136.771 762.621 136.888L763.048 139.858ZM775.138 134.824C774.324 134.976 773.787 135.76 773.94 136.574C774.093 137.389 774.876 137.925 775.691 137.772L775.138 134.824ZM788.247 135.102C789.053 134.909 789.549 134.1 789.356 133.294C789.163 132.489 788.354 131.992 787.548 132.185L788.247 135.102ZM799.844 128.864C799.051 129.104 798.604 129.942 798.844 130.734C799.084 131.527 799.922 131.975 800.715 131.735L799.844 128.864ZM812.854 127.591C813.627 127.295 814.014 126.428 813.718 125.654C813.421 124.88 812.554 124.494 811.78 124.79L812.854 127.591ZM823.407 119.747C822.664 120.112 822.357 121.011 822.722 121.755C823.087 122.498 823.985 122.805 824.729 122.44L823.407 119.747ZM836.016 116.089C836.711 115.639 836.91 114.71 836.46 114.015C836.01 113.319 835.081 113.121 834.386 113.571L836.016 116.089ZM844.326 105.988C843.714 106.546 843.67 107.495 844.228 108.107C844.786 108.719 845.735 108.763 846.347 108.205L844.326 105.988ZM854.949 98.3067C855.403 97.6136 855.209 96.6839 854.516 96.2301C853.823 95.7764 852.893 95.9704 852.439 96.6635L854.949 98.3067ZM856.949 85.487C856.833 86.3072 857.404 87.0662 858.225 87.1822C859.045 87.2982 859.804 86.7273 859.92 85.907L856.949 85.487ZM857.047 72.6465C856.572 71.9677 855.636 71.8025 854.958 72.2774C854.279 72.7523 854.114 73.6876 854.589 74.3663L857.047 72.6465ZM844.95 68.18C845.755 68.3759 846.566 67.8822 846.762 67.0773C846.958 66.2724 846.465 65.461 845.66 65.2651L844.95 68.18ZM832.684 66.5863C832.03 67.0938 831.91 68.0361 832.418 68.6908C832.925 69.3455 833.868 69.4648 834.522 68.9572L832.684 66.5863ZM830.175 78.1079C830.302 77.2893 829.742 76.5226 828.923 76.3955C828.105 76.2684 827.338 76.829 827.211 77.6477L830.175 78.1079ZM827.14 89.485C827.234 90.3082 827.977 90.8998 828.8 90.8064C829.623 90.713 830.215 89.97 830.121 89.1468L827.14 89.485ZM832.359 100.162C832.13 99.3655 831.299 98.9056 830.503 99.1344C829.707 99.3632 829.247 100.194 829.475 100.99L832.359 100.162ZM833.488 111.962C833.826 112.718 834.713 113.058 835.469 112.72C836.226 112.383 836.566 111.496 836.228 110.739L833.488 111.962ZM841.519 120.703C841.081 120.001 840.156 119.786 839.453 120.224C838.75 120.662 838.535 121.588 838.973 122.291L841.519 120.703ZM845.867 131.739C846.404 132.37 847.35 132.445 847.981 131.908C848.612 131.371 848.687 130.424 848.15 129.794L845.867 131.739ZM856.1 137.719C855.466 137.186 854.52 137.268 853.986 137.902C853.453 138.536 853.535 139.482 854.17 140.016L856.1 137.719ZM863.821 146.721C864.543 147.127 865.458 146.871 865.864 146.149C866.27 145.427 866.014 144.513 865.292 144.107L863.821 146.721ZM875.521 148.585C874.732 148.331 873.887 148.764 873.633 149.553C873.379 150.341 873.812 151.186 874.601 151.441L875.521 148.585ZM886.098 153.906C886.921 153.999 887.664 153.407 887.757 152.584C887.85 151.76 887.257 151.018 886.434 150.925L886.098 153.906ZM897.634 151.141C896.808 151.199 896.185 151.915 896.243 152.742C896.3 153.568 897.017 154.191 897.843 154.134L897.634 151.141ZM910.009 152.382C910.822 152.223 911.352 151.435 911.193 150.622C911.034 149.809 910.246 149.279 909.433 149.438L910.009 152.382ZM921.689 146.549C920.89 146.768 920.42 147.593 920.639 148.392C920.858 149.191 921.683 149.661 922.482 149.442L921.689 146.549ZM934.711 145.673C935.495 145.407 935.915 144.555 935.648 143.77C935.382 142.986 934.53 142.566 933.745 142.833L934.711 145.673ZM945.625 138.486C944.853 138.786 944.47 139.655 944.771 140.428C945.071 141.2 945.94 141.582 946.712 141.282L945.625 138.486ZM958.533 136.507C959.299 136.19 959.662 135.312 959.345 134.547C959.027 133.782 958.15 133.418 957.385 133.736L958.533 136.507ZM969.119 128.888C968.351 129.199 967.98 130.073 968.29 130.841C968.601 131.609 969.475 131.98 970.243 131.67L969.119 128.888ZM982.067 127.262C982.854 127.005 983.285 126.158 983.028 125.371C982.771 124.583 981.924 124.153 981.137 124.409L982.067 127.262ZM993.851 121.546C993.025 121.615 992.412 122.34 992.48 123.165C992.549 123.991 993.274 124.605 994.1 124.536L993.851 121.546ZM1005.22 126.975C1005.9 127.454 1006.84 127.295 1007.32 126.62C1007.8 125.944 1007.64 125.008 1006.96 124.528L1005.22 126.975ZM1014.55 135.531C1014.27 134.751 1013.41 134.347 1012.63 134.628C1011.85 134.909 1011.45 135.769 1011.73 136.548L1014.55 135.531ZM1014.43 148.628C1014.54 149.449 1015.29 150.029 1016.11 149.923C1016.93 149.816 1017.51 149.064 1017.41 148.242L1014.43 148.628ZM1018.37 161.052C1018.34 160.224 1017.65 159.573 1016.82 159.599C1015.99 159.625 1015.34 160.317 1015.37 161.145L1018.37 161.052ZM683.877 173.504C683.276 171.791 682.829 170.029 682.624 168.261L679.644 168.606C679.88 170.639 680.388 172.621 681.046 174.496L683.877 173.504ZM684.765 158.258C686.327 155.814 688.847 153.422 692.739 151.266L691.286 148.641C687.049 150.988 684.12 153.698 682.238 156.642L684.765 158.258ZM703.053 147.161C706.253 146.242 709.911 145.432 714.082 144.76L713.605 141.798C709.334 142.487 705.557 143.32 702.224 144.278L703.053 147.161ZM725.344 143.403C727.172 143.246 729.072 143.111 731.047 142.998L730.875 140.003C728.873 140.117 726.945 140.255 725.088 140.413L725.344 143.403ZM731.047 142.998C733.244 142.872 735.409 142.731 737.541 142.576L737.323 139.584C735.207 139.738 733.057 139.877 730.875 140.003L731.047 142.998ZM750.318 141.44C754.713 140.975 758.955 140.446 763.048 139.858L762.621 136.888C758.566 137.471 754.361 137.995 750.002 138.457L750.318 141.44ZM775.691 137.772C780.07 136.951 784.253 136.059 788.247 135.102L787.548 132.185C783.605 133.129 779.47 134.012 775.138 134.824L775.691 137.772ZM800.715 131.735C805.023 130.429 809.066 129.043 812.854 127.591L811.78 124.79C808.063 126.215 804.087 127.577 799.844 128.864L800.715 131.735ZM824.729 122.44C828.89 120.398 832.646 118.271 836.016 116.089L834.386 113.571C831.122 115.684 827.47 117.753 823.407 119.747L824.729 122.44ZM846.347 108.205C849.946 104.925 852.796 101.596 854.949 98.3067L852.439 96.6635C850.441 99.7159 847.763 102.856 844.326 105.988L846.347 108.205ZM859.92 85.907C860.63 80.8856 859.6 76.2956 857.047 72.6465L854.589 74.3663C856.659 77.3252 857.565 81.1322 856.949 85.487L859.92 85.907ZM845.66 65.2651C843.594 64.7624 841.353 64.5 838.961 64.5L838.961 67.5C841.134 67.5 843.136 67.7384 844.95 68.18L845.66 65.2651ZM838.961 64.5C836.547 64.5 834.435 65.2291 832.684 66.5863L834.522 68.9572C835.727 68.023 837.187 67.5 838.961 67.5L838.961 64.5ZM827.211 77.6477C826.667 81.1518 826.651 85.1753 827.14 89.485L830.121 89.1468C829.655 85.0388 829.681 81.291 830.175 78.1079L827.211 77.6477ZM829.475 100.99C830.513 104.601 831.851 108.291 833.488 111.962L836.228 110.739C834.647 107.196 833.357 103.637 832.359 100.162L829.475 100.99ZM838.973 122.291C841.013 125.562 843.31 128.738 845.867 131.739L848.15 129.794C845.696 126.912 843.485 123.857 841.519 120.703L838.973 122.291ZM854.17 140.016C857.141 142.514 860.358 144.774 863.821 146.721L865.292 144.107C862.002 142.256 858.938 140.105 856.1 137.719L854.17 140.016ZM874.601 151.441C878.23 152.61 882.063 153.451 886.098 153.906L886.434 150.925C882.599 150.492 878.961 149.694 875.521 148.585L874.601 151.441ZM897.843 154.134C899.754 154 901.702 153.785 903.687 153.483L903.236 150.517C901.33 150.807 899.463 151.013 897.634 151.141L897.843 154.134ZM903.687 153.483C905.818 153.158 907.926 152.79 910.009 152.382L909.433 149.438C907.39 149.838 905.324 150.199 903.236 150.517L903.687 153.483ZM922.482 149.442C926.675 148.292 930.753 147.018 934.711 145.673L933.745 142.833C929.836 144.162 925.816 145.417 921.689 146.549L922.482 149.442ZM946.712 141.282C950.809 139.689 954.754 138.073 958.533 136.507L957.385 133.736C953.612 135.299 949.691 136.905 945.625 138.486L946.712 141.282ZM970.243 131.67C974.46 129.966 978.401 128.457 982.067 127.262L981.137 124.409C977.374 125.636 973.359 127.175 969.119 128.888L970.243 131.67ZM994.1 124.536C998.609 124.16 1002.28 124.881 1005.22 126.975L1006.96 124.528C1003.25 121.896 998.806 121.133 993.851 121.546L994.1 124.536ZM1011.73 136.548C1012.89 139.774 1013.8 143.759 1014.43 148.628L1017.41 148.242C1016.76 143.226 1015.81 139.017 1014.55 135.531L1011.73 136.548ZM1015.37 161.145C1015.43 163.163 1015.46 165.28 1015.46 167.5H1018.46C1018.46 165.252 1018.43 163.104 1018.37 161.052L1015.37 161.145Z" fill="white"/>
<circle cx="1007.77" cy="425.739" r="15.2308" fill="white"/>
<path d="M1011.08 431.082L1010.08 423.195L1010.1 423.155L1010.06 423.139C1010.02 423.11 1009.97 423.091 1009.92 423.087L1008.24 422.588L1009.37 419.362C1009.37 419.362 1009.37 419.362 1009.39 419.313L1009.78 406.135C1009.78 406.062 1009.76 405.991 1009.71 405.936C1009.66 405.882 1009.59 405.848 1009.52 405.841L925.683 398.295L925.634 398.276L925.593 398.261L925.575 398.309C925.573 398.327 925.566 398.343 925.556 398.358C925.548 398.414 925.555 398.471 925.577 398.524C925.603 398.572 925.644 398.611 925.695 398.633L1004.26 432.962C1004.32 432.981 1004.39 432.983 1004.45 432.967C1004.5 432.947 1004.54 432.91 1004.56 432.862L1006.48 429.52L1010.8 431.161C1010.85 431.178 1010.9 431.183 1010.95 431.175C1010.99 431.168 1011.04 431.148 1011.08 431.118C1011.12 431.088 1011.15 431.049 1011.17 431.004C1011.18 430.959 1011.19 430.91 1011.19 430.862L1011.08 431.082ZM1008.24 408.223L1008.24 418.123L931.615 399.846L1008.24 408.223ZM931.615 400.608L1007.57 420.408L1006.68 422.736L1003.2 430.066L931.615 400.608ZM1005.53 430.066L1008.24 423.422L1009.22 423.701L1005.53 430.066ZM1007.01 428.785L1009.29 424.215L1010.1 430.066L1007.01 428.785Z" fill="white"/>
<circle r="15.2308" transform="matrix(-0.724028 -0.689771 -0.689771 0.724028 21.5334 45.7932)" fill="white"/>
<path d="M15.4472 47.376L21.6111 42.3549L21.6279 42.3149L21.6681 42.3319C21.7181 42.3384 21.7653 42.3583 21.8049 42.3894L23.3642 43.1859L24.769 40.0692C24.769 40.0692 24.769 40.0692 24.7892 40.0212L33.5997 30.2132C33.6485 30.1591 33.7162 30.1256 33.7892 30.1196C33.8621 30.1135 33.9347 30.1353 33.9923 30.1806L99.8957 82.5439L99.944 82.5642L99.9842 82.5811L99.964 82.6291C99.9536 82.6433 99.9467 82.6597 99.9439 82.677C99.9115 82.7236 99.8666 82.7602 99.8143 82.7825C99.7622 82.8 99.7058 82.7995 99.6539 82.781L19.0908 53.4427C19.0339 53.4157 18.9861 53.3727 18.9533 53.3191C18.9307 53.2704 18.9269 53.2152 18.9427 53.164L19.8549 49.4169L15.5973 47.6272C15.5523 47.6077 15.5131 47.5771 15.4832 47.5383C15.4534 47.4995 15.4339 47.4539 15.4267 47.4056C15.4195 47.3574 15.4247 47.3081 15.442 47.2626C15.4592 47.217 15.4879 47.1767 15.5252 47.1453L15.4472 47.376ZM33.2725 32.7855L26.4438 39.9534L94.5305 79.5752L33.2725 32.7855ZM94.0052 80.1266L25.3528 42.0695L24.3939 44.3717L21.8564 52.0784L94.0052 80.1266ZM20.1693 50.4711L22.7886 43.7901L21.8886 43.3177L20.1693 50.4711ZM19.9835 48.5241L21.4811 43.64L16.8606 47.319L19.9835 48.5241Z" fill="white"/>
<circle cx="770.641" cy="475.231" r="15.2308" fill="white"/>
<path d="M730.008 424.577L730.004 424.534C730.002 424.52 730.001 424.505 730.001 424.491L730.044 424.487L730.31 424.464L788.853 457.265C788.911 457.296 788.957 457.344 788.988 457.401C789.019 457.459 789.033 457.524 789.028 457.589C789.023 457.656 789 457.721 788.96 457.775C788.92 457.829 788.866 457.871 788.803 457.895L773.645 463.539L772.046 479.929L772.052 479.999L772.055 480.042L772.009 480.107L771.957 480.111L771.906 480.115L771.794 480.125C771.751 480.141 771.703 480.145 771.657 480.137C771.616 480.121 771.581 480.093 771.555 480.058L762.341 467.74L745.85 473.88L745.756 473.888C745.697 473.905 745.636 473.911 745.576 473.904C745.534 473.882 745.497 473.852 745.467 473.816C745.437 473.78 745.415 473.738 745.402 473.693L730.147 424.687C730.147 424.687 730.001 424.595 730.008 424.577ZM732.921 426.389L765.922 456.129L773.414 462.854L787.894 457.469L732.921 426.389ZM736.492 430.537L768.812 464.752C768.854 464.796 768.883 464.851 768.895 464.91L771.54 477.555L772.921 463.366L736.492 430.537ZM771.042 478.406L768.338 465.48L762.891 467.502L771.042 478.406ZM745.82 473.118L767.983 464.866L731.114 425.883L745.82 473.118Z" fill="#22577E"/>
<circle r="15.2308" transform="matrix(-1 0 0 1 20.1794 575.508)" fill="white"/>
<path d="M60.8123 524.855L60.816 524.811C60.8181 524.797 60.8193 524.783 60.8197 524.768L60.7768 524.765L60.5107 524.742L1.96699 557.542C1.9098 557.574 1.86284 557.621 1.83183 557.678C1.80082 557.736 1.78711 557.801 1.79232 557.867C1.79699 557.934 1.82057 557.998 1.86033 558.053C1.9001 558.107 1.95439 558.148 2.01687 558.173L17.1752 563.816L18.7746 580.207L18.7687 580.276L18.765 580.319L18.8114 580.384L18.8629 580.388L18.9143 580.393L19.0259 580.402C19.0698 580.419 19.1173 580.423 19.1633 580.414C19.2038 580.398 19.2391 580.371 19.2651 580.336L28.4796 568.018L44.9701 574.158L45.0645 574.166C45.123 574.183 45.1843 574.188 45.2448 574.181C45.2865 574.16 45.3234 574.13 45.3532 574.093C45.3831 574.057 45.4053 574.015 45.4185 573.97L60.6732 524.964C60.6732 524.964 60.8194 524.873 60.8123 524.855ZM57.8994 526.667L24.8982 556.406L17.4066 563.132L2.92658 557.746L57.8994 526.667ZM54.3286 530.814L22.0083 565.03C21.966 565.073 21.9373 565.128 21.9257 565.188L19.2802 577.832L17.8989 563.643L54.3286 530.814ZM19.778 578.684L22.4822 565.757L27.9293 567.779L19.778 578.684ZM45.0007 573.395L22.8372 565.144L59.7064 526.16L45.0007 573.395Z" fill="#22577E"/>
</svg>
