<svg width="10" height="6" viewBox="0 0 10 6" fill="none" xmlns="http://www.w3.org/2000/svg">
<path d="M8.96751 0.982517C8.89813 0.912989 8.81571 0.857828 8.72498 0.820192C8.63425 0.782556 8.53699 0.763184 8.43876 0.763184C8.34054 0.763184 8.24328 0.782556 8.15255 0.820192C8.06182 0.857828 7.9794 0.912989 7.91001 0.982517L5.00001 3.89252L2.09001 0.982517C1.94978 0.842284 1.75958 0.763501 1.56126 0.763501C1.36295 0.763501 1.17275 0.842284 1.03251 0.982517C0.892281 1.12275 0.813499 1.31295 0.813499 1.51127C0.813499 1.70959 0.892281 1.89978 1.03251 2.04002L4.47501 5.48252C4.5444 5.55204 4.62682 5.60721 4.71755 5.64484C4.80828 5.68248 4.90554 5.70185 5.00376 5.70185C5.10199 5.70185 5.19925 5.68248 5.28998 5.64484C5.38071 5.60721 5.46313 5.55204 5.53251 5.48252L8.97501 2.04002C9.26001 1.75502 9.26001 1.27502 8.96751 0.982517Z" fill="#969696"/>
</svg>
